<mxfile host="app.diagrams.net" agent="Mozilla/5.0 (Windows NT 10.0; Win64; x64; rv:130.0) Gecko/20100101 Firefox/130.0" version="24.7.12">
  <diagram id="C5RBs43oDa-KdzZeNtuy" name="Page-1">
    <mxGraphModel dx="989" dy="514" grid="1" gridSize="10" guides="1" tooltips="1" connect="1" arrows="1" fold="1" page="1" pageScale="1" pageWidth="827" pageHeight="1169" math="0" shadow="0">
      <root>
        <mxCell id="WIyWlLk6GJQsqaUBKTNV-0" />
        <mxCell id="WIyWlLk6GJQsqaUBKTNV-1" parent="WIyWlLk6GJQsqaUBKTNV-0" />
        <mxCell id="5YBtPGICOsSLS0k8WFSa-1" value="tb_usuario_solucionador" style="swimlane;fontStyle=1;align=center;verticalAlign=top;childLayout=stackLayout;horizontal=1;startSize=26;horizontalStack=0;resizeParent=1;resizeParentMax=0;resizeLast=0;collapsible=1;marginBottom=0;whiteSpace=wrap;html=1;" parent="WIyWlLk6GJQsqaUBKTNV-1" vertex="1">
          <mxGeometry x="490" y="280" width="190" height="194" as="geometry" />
        </mxCell>
        <mxCell id="5YBtPGICOsSLS0k8WFSa-2" value="+ nome: varchar(32)&lt;div&gt;+ email: varchar(42)&lt;/div&gt;&lt;div&gt;+ senha: varchar(22)&lt;br&gt;&lt;div&gt;- cpf: char(11)&lt;br&gt;&lt;/div&gt;&lt;div&gt;&lt;br&gt;&lt;/div&gt;&lt;div&gt;&lt;br&gt;&lt;/div&gt;&lt;div&gt;&lt;br&gt;&lt;/div&gt;&lt;div&gt;# created_at: timestamp&lt;/div&gt;&lt;div&gt;# updated_at: timestamp&lt;/div&gt;&lt;/div&gt;" style="text;strokeColor=none;fillColor=none;align=left;verticalAlign=top;spacingLeft=4;spacingRight=4;overflow=hidden;rotatable=0;points=[[0,0.5],[1,0.5]];portConstraint=eastwest;whiteSpace=wrap;html=1;" parent="5YBtPGICOsSLS0k8WFSa-1" vertex="1">
          <mxGeometry y="26" width="190" height="134" as="geometry" />
        </mxCell>
        <mxCell id="5YBtPGICOsSLS0k8WFSa-3" value="" style="line;strokeWidth=1;fillColor=none;align=left;verticalAlign=middle;spacingTop=-1;spacingLeft=3;spacingRight=3;rotatable=0;labelPosition=right;points=[];portConstraint=eastwest;strokeColor=inherit;" parent="5YBtPGICOsSLS0k8WFSa-1" vertex="1">
          <mxGeometry y="160" width="190" height="8" as="geometry" />
        </mxCell>
        <mxCell id="5YBtPGICOsSLS0k8WFSa-4" value="+ method(type): type" style="text;strokeColor=none;fillColor=none;align=left;verticalAlign=top;spacingLeft=4;spacingRight=4;overflow=hidden;rotatable=0;points=[[0,0.5],[1,0.5]];portConstraint=eastwest;whiteSpace=wrap;html=1;" parent="5YBtPGICOsSLS0k8WFSa-1" vertex="1">
          <mxGeometry y="168" width="190" height="26" as="geometry" />
        </mxCell>
        <mxCell id="5YBtPGICOsSLS0k8WFSa-5" value="tb_usuario_publico" style="swimlane;fontStyle=1;align=center;verticalAlign=top;childLayout=stackLayout;horizontal=1;startSize=26;horizontalStack=0;resizeParent=1;resizeParentMax=0;resizeLast=0;collapsible=1;marginBottom=0;whiteSpace=wrap;html=1;" parent="WIyWlLk6GJQsqaUBKTNV-1" vertex="1">
          <mxGeometry x="224" y="40" width="190" height="224" as="geometry" />
        </mxCell>
        <mxCell id="5YBtPGICOsSLS0k8WFSa-6" value="+ nome: varchar(32)&lt;div&gt;&lt;div&gt;+ email: varchar(42)&lt;/div&gt;&lt;div&gt;+ senha: varchar(22)&lt;/div&gt;&lt;/div&gt;&lt;div&gt;# cpf: char(11)&lt;br&gt;&lt;/div&gt;&lt;div&gt;# cep: char(8)&lt;/div&gt;&lt;div&gt;# logradouro: varchar(26)&lt;br&gt;&lt;/div&gt;&lt;div&gt;&lt;br&gt;&lt;/div&gt;&lt;div&gt;&lt;br&gt;&lt;/div&gt;&lt;div&gt;&lt;br&gt;&lt;/div&gt;&lt;div&gt;&lt;div&gt;# created_at: timestamp&lt;/div&gt;&lt;div&gt;# updated_at: timestamp&lt;/div&gt;&lt;/div&gt;" style="text;strokeColor=none;fillColor=none;align=left;verticalAlign=top;spacingLeft=4;spacingRight=4;overflow=hidden;rotatable=0;points=[[0,0.5],[1,0.5]];portConstraint=eastwest;whiteSpace=wrap;html=1;" parent="5YBtPGICOsSLS0k8WFSa-5" vertex="1">
          <mxGeometry y="26" width="190" height="164" as="geometry" />
        </mxCell>
        <mxCell id="5YBtPGICOsSLS0k8WFSa-7" value="" style="line;strokeWidth=1;fillColor=none;align=left;verticalAlign=middle;spacingTop=-1;spacingLeft=3;spacingRight=3;rotatable=0;labelPosition=right;points=[];portConstraint=eastwest;strokeColor=inherit;" parent="5YBtPGICOsSLS0k8WFSa-5" vertex="1">
          <mxGeometry y="190" width="190" height="8" as="geometry" />
        </mxCell>
        <mxCell id="5YBtPGICOsSLS0k8WFSa-8" value="+ method(type): type" style="text;strokeColor=none;fillColor=none;align=left;verticalAlign=top;spacingLeft=4;spacingRight=4;overflow=hidden;rotatable=0;points=[[0,0.5],[1,0.5]];portConstraint=eastwest;whiteSpace=wrap;html=1;" parent="5YBtPGICOsSLS0k8WFSa-5" vertex="1">
          <mxGeometry y="198" width="190" height="26" as="geometry" />
        </mxCell>
        <mxCell id="5YBtPGICOsSLS0k8WFSa-9" value="tb_postagem" style="swimlane;fontStyle=1;align=center;verticalAlign=top;childLayout=stackLayout;horizontal=1;startSize=26;horizontalStack=0;resizeParent=1;resizeParentMax=0;resizeLast=0;collapsible=1;marginBottom=0;whiteSpace=wrap;html=1;" parent="WIyWlLk6GJQsqaUBKTNV-1" vertex="1">
          <mxGeometry x="500" y="40" width="160" height="154" as="geometry" />
        </mxCell>
        <mxCell id="5YBtPGICOsSLS0k8WFSa-10" value="&lt;div&gt;+ titulo: varchar(24)&lt;/div&gt;+ image: image&lt;div&gt;+ descricao: text&lt;/div&gt;&lt;div&gt;# nivel_transtorno: int&lt;br&gt;&lt;/div&gt;" style="text;strokeColor=none;fillColor=none;align=left;verticalAlign=top;spacingLeft=4;spacingRight=4;overflow=hidden;rotatable=0;points=[[0,0.5],[1,0.5]];portConstraint=eastwest;whiteSpace=wrap;html=1;" parent="5YBtPGICOsSLS0k8WFSa-9" vertex="1">
          <mxGeometry y="26" width="160" height="94" as="geometry" />
        </mxCell>
        <mxCell id="5YBtPGICOsSLS0k8WFSa-11" value="" style="line;strokeWidth=1;fillColor=none;align=left;verticalAlign=middle;spacingTop=-1;spacingLeft=3;spacingRight=3;rotatable=0;labelPosition=right;points=[];portConstraint=eastwest;strokeColor=inherit;" parent="5YBtPGICOsSLS0k8WFSa-9" vertex="1">
          <mxGeometry y="120" width="160" height="8" as="geometry" />
        </mxCell>
        <mxCell id="5YBtPGICOsSLS0k8WFSa-12" value="+ method(type): type" style="text;strokeColor=none;fillColor=none;align=left;verticalAlign=top;spacingLeft=4;spacingRight=4;overflow=hidden;rotatable=0;points=[[0,0.5],[1,0.5]];portConstraint=eastwest;whiteSpace=wrap;html=1;" parent="5YBtPGICOsSLS0k8WFSa-9" vertex="1">
          <mxGeometry y="128" width="160" height="26" as="geometry" />
        </mxCell>
        <mxCell id="5YBtPGICOsSLS0k8WFSa-13" value="" style="endArrow=none;html=1;rounded=0;entryX=0.65;entryY=1;entryDx=0;entryDy=0;entryPerimeter=0;" parent="WIyWlLk6GJQsqaUBKTNV-1" target="5YBtPGICOsSLS0k8WFSa-15" edge="1">
          <mxGeometry width="50" height="50" relative="1" as="geometry">
            <mxPoint x="414" y="81" as="sourcePoint" />
            <mxPoint x="520" y="81" as="targetPoint" />
            <Array as="points" />
          </mxGeometry>
        </mxCell>
        <mxCell id="5YBtPGICOsSLS0k8WFSa-15" value="N" style="text;strokeColor=none;align=center;fillColor=none;html=1;verticalAlign=middle;whiteSpace=wrap;rounded=0;" parent="WIyWlLk6GJQsqaUBKTNV-1" vertex="1">
          <mxGeometry x="460" y="60" width="60" height="20" as="geometry" />
        </mxCell>
        <mxCell id="5YBtPGICOsSLS0k8WFSa-16" value="1" style="text;strokeColor=none;align=center;fillColor=none;html=1;verticalAlign=middle;whiteSpace=wrap;rounded=0;" parent="WIyWlLk6GJQsqaUBKTNV-1" vertex="1">
          <mxGeometry x="395" y="60" width="60" height="20" as="geometry" />
        </mxCell>
        <mxCell id="fwh1WAWeUarIwrXbm6m8-4" value="tb_comentario" style="swimlane;fontStyle=1;align=center;verticalAlign=top;childLayout=stackLayout;horizontal=1;startSize=26;horizontalStack=0;resizeParent=1;resizeParentMax=0;resizeLast=0;collapsible=1;marginBottom=0;whiteSpace=wrap;html=1;" vertex="1" parent="WIyWlLk6GJQsqaUBKTNV-1">
          <mxGeometry x="740" y="40" width="160" height="154" as="geometry" />
        </mxCell>
        <mxCell id="fwh1WAWeUarIwrXbm6m8-5" value="&lt;div&gt;+ titulo: varchar(24)&lt;/div&gt;+ image: image&lt;div&gt;+ descricao: text&lt;/div&gt;&lt;div&gt;- fk_idpostagem: int&lt;br&gt;&lt;/div&gt;&lt;div&gt;&lt;br&gt;&lt;/div&gt;" style="text;strokeColor=none;fillColor=none;align=left;verticalAlign=top;spacingLeft=4;spacingRight=4;overflow=hidden;rotatable=0;points=[[0,0.5],[1,0.5]];portConstraint=eastwest;whiteSpace=wrap;html=1;" vertex="1" parent="fwh1WAWeUarIwrXbm6m8-4">
          <mxGeometry y="26" width="160" height="94" as="geometry" />
        </mxCell>
        <mxCell id="fwh1WAWeUarIwrXbm6m8-6" value="" style="line;strokeWidth=1;fillColor=none;align=left;verticalAlign=middle;spacingTop=-1;spacingLeft=3;spacingRight=3;rotatable=0;labelPosition=right;points=[];portConstraint=eastwest;strokeColor=inherit;" vertex="1" parent="fwh1WAWeUarIwrXbm6m8-4">
          <mxGeometry y="120" width="160" height="8" as="geometry" />
        </mxCell>
        <mxCell id="fwh1WAWeUarIwrXbm6m8-7" value="+ method(type): type" style="text;strokeColor=none;fillColor=none;align=left;verticalAlign=top;spacingLeft=4;spacingRight=4;overflow=hidden;rotatable=0;points=[[0,0.5],[1,0.5]];portConstraint=eastwest;whiteSpace=wrap;html=1;" vertex="1" parent="fwh1WAWeUarIwrXbm6m8-4">
          <mxGeometry y="128" width="160" height="26" as="geometry" />
        </mxCell>
        <mxCell id="fwh1WAWeUarIwrXbm6m8-12" value="" style="endArrow=none;html=1;rounded=0;" edge="1" parent="WIyWlLk6GJQsqaUBKTNV-1">
          <mxGeometry width="50" height="50" relative="1" as="geometry">
            <mxPoint x="660" y="110" as="sourcePoint" />
            <mxPoint x="740" y="110" as="targetPoint" />
            <Array as="points">
              <mxPoint x="700" y="110" />
            </Array>
          </mxGeometry>
        </mxCell>
        <mxCell id="fwh1WAWeUarIwrXbm6m8-13" value="1" style="text;strokeColor=none;align=center;fillColor=none;html=1;verticalAlign=middle;whiteSpace=wrap;rounded=0;" vertex="1" parent="WIyWlLk6GJQsqaUBKTNV-1">
          <mxGeometry x="640" y="90" width="60" height="20" as="geometry" />
        </mxCell>
        <mxCell id="fwh1WAWeUarIwrXbm6m8-14" value="N" style="text;strokeColor=none;align=center;fillColor=none;html=1;verticalAlign=middle;whiteSpace=wrap;rounded=0;" vertex="1" parent="WIyWlLk6GJQsqaUBKTNV-1">
          <mxGeometry x="720" y="95" width="20" height="10" as="geometry" />
        </mxCell>
      </root>
    </mxGraphModel>
  </diagram>
</mxfile>
